<svg width="21" height="16" viewBox="0 0 21 16" fill="none" xmlns="http://www.w3.org/2000/svg">
<g clip-path="url(#clip0_2394_11893)">
<path d="M1.17317 0.0249023H19.8234C20.4573 0.0249023 20.9736 0.589804 20.9736 1.28347V7.99998H0.0229492V1.28347C0.0229492 0.589804 0.539218 0.0249023 1.17317 0.0249023Z" fill="white"/>
<path d="M0.0229492 8H20.9774V14.7165C20.9774 15.4102 20.4611 15.9751 19.8272 15.9751H1.17317C0.539218 15.9751 0.0229492 15.406 0.0229492 14.7165V8Z" fill="#D52B1E"/>
<path d="M0.0229492 5.3418H20.9774V10.6585H0.0229492V5.3418Z" fill="#0039A6"/>
<path d="M1.17317 0.0249023H19.8234C20.4573 0.0249023 20.9736 0.589804 20.9736 1.28347V14.7123C20.9736 15.406 20.4573 15.9709 19.8234 15.9709H1.17317C0.539218 15.9709 0.0229492 15.4018 0.0229492 14.7123V1.28347C0.0229492 0.589804 0.539218 0.0249023 1.17317 0.0249023Z" stroke="#CCCCCC" stroke-width="0.1199" stroke-miterlimit="2.6131"/>
</g>
<defs>
<clipPath id="clip0_2394_11893">
<rect width="21" height="16" fill="white"/>
</clipPath>
</defs>
</svg>
