<svg width="185" height="185" viewBox="0 0 185 185" fill="none" xmlns="http://www.w3.org/2000/svg">
<path d="M151.834 185H33.1657C14.8454 185 0 170.147 0 151.834V33.1657C0 14.8454 14.8533 0 33.1657 0H151.834C170.155 0 185 14.8533 185 33.1657V151.834C185 170.147 170.147 185 151.834 185Z" fill="#833FDC"/>
<path d="M89.2377 48.5547H159.06C159.06 48.5547 158.516 69.3177 134.916 69.3177H90.4433C82.8945 69.3177 82.8945 81.7047 90.4433 81.7047H132.198C168.019 81.7047 168.019 136.414 132.198 136.414H58.4044C43.2674 136.611 32.1964 135.862 26.2078 134.522C25.8532 134.444 25.8611 133.939 26.2157 133.868C36.089 131.954 53.0383 131.654 70.0742 131.843C79.3408 132.127 88.0242 131.922 92.6811 130.535C93.0042 130.441 92.9963 129.992 92.6732 129.897C88.8595 128.802 80.964 128.337 72.5878 128.1C83.2491 127.888 94.131 127.58 99.1189 126.264C99.4498 126.178 99.4498 125.697 99.1189 125.618C94.2098 124.389 85.4633 124.05 76.8665 123.853C65.0942 123.908 53.7947 123.53 47.3412 121.986C46.9945 121.899 47.0024 121.403 47.357 121.324C53.8341 119.945 63.5971 119.283 74.0535 119.315C74.0535 119.315 78.1352 116.911 86.0779 116.911H128.195C128.195 116.911 134.507 116.273 134.507 109.559C141.386 109.599 148.667 109.331 152.953 108.291C153.292 108.204 153.292 107.716 152.953 107.637C147.823 106.439 138.793 106.392 130.464 106.526C119.354 106.502 108.417 106.628 102.673 105.312C102.326 105.233 102.334 104.737 102.673 104.658C106.021 103.902 112.932 103.697 119.165 103.563H84.8881C84.8881 103.563 74.9439 104.154 66.1659 92.492C87.9454 92.6496 109.481 92.6338 117.494 90.5378C117.825 90.4511 117.833 89.9784 117.502 89.8838C112.908 88.5994 104.028 88.1897 94.9032 88.04L62.9746 88.2448C51.5569 88.1582 41.9279 87.5278 34.7416 86.1803C34.3791 86.1094 34.3791 85.5972 34.7416 85.5263C42.0539 84.0686 51.6042 83.5722 62.1157 83.4776C62.1157 83.4776 61.0835 81.6731 61.0992 78.5055C57.1909 78.474 53.2116 77.7333 49.1851 76.4568C48.8699 76.3543 48.8699 75.9209 49.1772 75.8106C53.1328 74.4632 57.1357 73.8643 61.1701 74.0377C62.1787 67.1902 64.6372 63.1164 68.0649 58.1443C54.039 57.9237 41.9909 57.3406 35.2853 56.1665C34.9149 56.1035 34.9149 55.5755 35.2853 55.5046C46.7581 53.385 59.476 52.9831 72.1466 53.3534L88.6861 53.3062C103.145 53.2195 115.532 52.6443 121.718 51.2259C122.065 51.1471 122.072 50.6586 121.734 50.5719C116.352 49.2166 102.744 48.8305 89.2377 48.5547Z" fill="white"/>
</svg>
